<svg id="SvgjsSvg1001" width="288" height="288" xmlns="http://www.w3.org/2000/svg" version="1.1" xmlns:xlink="http://www.w3.org/1999/xlink" xmlns:svgjs="http://svgjs.com/svgjs"><defs id="SvgjsDefs1002"></defs><g id="SvgjsG1008" transform="matrix(1,0,0,1,0,0)"><svg xmlns="http://www.w3.org/2000/svg" data-name="Layer 1" viewBox="0 0 29 29" width="288" height="288"><path d="M26.48328,13.25244l-2.111-2.1109A1.76433,1.76433,0,0,1,23.85559,9.894V6.90869a1.76431,1.76431,0,0,0-1.76428-1.76428H19.106a1.76423,1.76423,0,0,1-1.24756-.51672l-2.1109-2.111a1.7644,1.7644,0,0,0-2.49512,0l-2.1109,2.111A1.76423,1.76423,0,0,1,9.894,5.14441H6.90869A1.76431,1.76431,0,0,0,5.14441,6.90869V9.894a1.76433,1.76433,0,0,1-.51672,1.24756l-2.111,2.1109a1.76433,1.76433,0,0,0,0,2.49506l2.111,2.111a1.7642,1.7642,0,0,1,.51672,1.2475v2.98535a1.76431,1.76431,0,0,0,1.76428,1.76428H9.894a1.76423,1.76423,0,0,1,1.24756.51672l2.1109,2.11091a1.7643,1.7643,0,0,0,2.49512,0l2.1109-2.11091a1.76423,1.76423,0,0,1,1.24756-.51672h2.98529a1.76431,1.76431,0,0,0,1.76428-1.76428V19.106a1.7642,1.7642,0,0,1,.51672-1.2475l2.111-2.111A1.76433,1.76433,0,0,0,26.48328,13.25244ZM20.4375,10.77686l-7.27539,8.72656a.99988.99988,0,0,1-.72266.35888l-.04541.001a.99976.99976,0,0,1-.707-.293L8.62354,16.50684a.99989.99989,0,1,1,1.41406-1.41407l2.28955,2.28907,6.57324-7.88526a1.00023,1.00023,0,0,1,1.53711,1.28028Z" fill="#1da1f2" class="color000 svgShape"></path></svg></g></svg>